<?xml version="1.0" standalone="no"?>
<!DOCTYPE svg PUBLIC "-//W3C//DTD SVG 20010904//EN"
 "http://www.w3.org/TR/2001/REC-SVG-20010904/DTD/svg10.dtd">
<svg version="1.0" xmlns="http://www.w3.org/2000/svg"
 width="512.000000pt" height="512.000000pt" viewBox="0 0 512.000000 512.000000"
 preserveAspectRatio="xMidYMid meet">
<metadata>
Created by potrace 1.16, written by Peter Selinger 2001-2019
</metadata>
<g transform="translate(0.000000,512.000000) scale(0.100000,-0.100000)"
fill="#000000" stroke="none">
<path d="M2375 4778 c-71 -19 -87 -20 -149 -9 -63 10 -72 10 -111 -9 -71 -34
-112 -82 -125 -144 -15 -74 2 -115 59 -141 31 -13 40 -23 36 -34 -4 -9 -11
-63 -17 -120 -9 -92 -9 -105 6 -113 9 -5 16 -16 16 -23 0 -8 5 -15 10 -15 15
0 12 -22 -14 -100 -14 -40 -22 -78 -19 -86 3 -8 18 -18 34 -21 25 -5 29 -10
29 -37 0 -18 5 -37 12 -44 7 -7 13 -43 14 -81 1 -37 7 -78 13 -89 17 -32 74
-44 148 -30 35 6 66 9 69 6 12 -12 -31 -61 -89 -100 -84 -57 -135 -106 -156
-147 -32 -63 -64 -227 -54 -270 6 -21 6 -47 2 -60 -6 -14 -4 -35 6 -59 12 -28
14 -47 6 -86 -5 -28 -13 -87 -16 -131 -4 -48 -14 -95 -26 -118 -10 -21 -19
-49 -19 -62 0 -14 -14 -38 -33 -58 -21 -21 -38 -51 -46 -82 -7 -29 -26 -64
-47 -87 -21 -24 -34 -48 -34 -66 0 -17 -19 -52 -49 -93 -47 -64 -50 -66 -101
-72 -37 -4 -62 -14 -79 -31 -14 -13 -42 -27 -61 -31 -58 -12 -70 -23 -109
-104 l-37 -77 -24 85 c-38 143 -138 458 -155 491 -9 17 -26 35 -38 40 -12 6
-188 23 -391 40 -353 29 -370 30 -388 13 -14 -13 -18 -26 -15 -48 5 -28 122
-367 251 -725 31 -85 64 -161 73 -168 14 -10 -30 -12 -228 -12 -238 0 -294 -7
-259 -30 8 -5 150 -63 315 -129 343 -136 278 -124 739 -141 248 -9 274 -9 615
21 196 16 390 34 431 38 83 9 90 8 90 -18 0 -29 -20 -39 -95 -51 -58 -9 -75
-16 -99 -42 l-28 -31 -360 5 -359 4 -34 -61 c-43 -75 -69 -175 -60 -223 11
-59 50 -125 119 -200 58 -63 79 -100 187 -319 66 -136 121 -259 121 -273 -1
-14 -16 -65 -34 -115 -32 -86 -35 -90 -68 -97 -30 -5 -28 -6 14 -5 l49 2 49
135 c27 74 92 263 144 420 74 220 98 306 106 375 5 50 14 98 19 107 5 10 9 28
9 40 l1 23 13 -24 c11 -21 9 -39 -16 -138 -16 -64 -27 -120 -25 -127 6 -13 77
135 77 159 0 24 17 9 24 -22 9 -35 68 -165 73 -159 2 2 -6 39 -18 82 -40 143
-29 255 30 308 21 19 22 19 51 -9 16 -16 32 -26 35 -23 10 10 -26 93 -52 120
l-25 27 43 11 c127 32 145 48 142 120 l-2 48 35 -10 c20 -5 38 -7 41 -4 8 7
-43 26 -70 26 -12 0 -107 14 -212 32 -179 31 -186 33 -125 36 36 2 82 -2 103
-8 38 -11 39 -10 95 41 80 73 246 182 369 242 113 55 121 68 26 42 -32 -9 -75
-20 -95 -24 -37 -8 -38 -8 -38 23 -1 29 -2 28 -16 -14 -16 -45 -59 -100 -79
-100 -5 0 -21 18 -35 40 -25 40 -48 55 -35 23 21 -52 26 -85 14 -99 -16 -19
-25 -18 -63 11 -42 32 -53 32 -32 0 9 -14 14 -25 12 -25 -3 0 -40 16 -82 35
-111 51 -117 33 -11 -35 70 -45 69 -46 -17 -24 -34 9 -79 14 -101 11 -23 -4
-84 4 -150 18 -60 13 -137 27 -170 30 -33 4 -63 9 -67 12 -8 4 64 71 104 96
37 23 46 21 92 -13 57 -43 131 -56 204 -35 31 9 81 30 111 46 30 16 66 29 80
29 14 0 75 9 135 20 105 19 190 23 521 23 101 0 129 -3 174 -22 78 -32 105
-54 166 -137 30 -41 58 -74 61 -74 11 0 -42 84 -103 161 -59 74 -61 79 -36 73
112 -27 186 -76 312 -208 l63 -67 -4 -62 c-2 -36 -13 -80 -25 -105 -23 -47
-24 -47 45 -56 56 -8 170 -64 189 -93 17 -26 10 -55 -20 -83 -30 -28 -34 -26
-41 26 -12 89 -55 126 -161 139 -110 13 -174 -6 -408 -122 -120 -59 -225 -116
-234 -125 -15 -17 -10 -18 108 -12 68 4 120 3 116 -2 -17 -19 -367 -44 -367
-26 0 15 95 100 153 137 152 95 344 163 491 173 l99 7 23 60 c23 60 29 109 18
140 -5 13 -15 8 -48 -28 -30 -30 -57 -48 -92 -57 -68 -20 -187 -16 -253 7
l-54 19 61 22 c33 13 71 31 84 42 l23 20 -35 -6 c-19 -3 -51 -11 -70 -16 -127
-38 -501 -275 -633 -400 l-39 -37 6 -78 c4 -62 4 -71 -4 -43 -15 51 -42 110
-50 110 -4 0 -13 -29 -20 -65 -11 -60 -10 -85 7 -170 5 -25 -5 -16 -61 52 -75
93 -86 102 -86 73 0 -33 28 -79 83 -137 46 -49 48 -53 25 -53 -23 0 -24 -4
-35 -103 -19 -168 -86 -345 -244 -643 -38 -72 -69 -137 -69 -143 0 -8 16 -11
47 -9 l48 3 52 115 c130 287 188 430 243 605 17 55 37 106 45 115 21 23 27 62
17 108 -10 41 -9 43 31 76 37 31 42 40 47 88 l5 53 260 131 c268 136 357 171
454 179 53 5 52 4 -25 -14 -102 -24 -200 -65 -383 -158 -275 -141 -291 -151
-291 -184 0 -47 29 -58 140 -50 88 6 98 4 129 -17 22 -14 49 -22 77 -22 32 0
44 -4 44 -15 0 -8 -7 -15 -15 -15 -13 0 -15 -22 -15 -134 0 -74 -4 -145 -9
-158 -8 -22 -29 -27 -280 -78 -241 -48 -271 -57 -271 -74 0 -16 5 -18 43 -12
60 10 463 95 481 102 27 10 19 -28 -15 -69 -19 -23 -37 -36 -45 -33 -15 6
-426 -77 -467 -94 -39 -16 4 -11 200 20 104 17 198 29 211 28 20 -3 0 -28
-142 -175 -91 -94 -168 -182 -170 -195 -3 -13 -7 -47 -8 -76 -3 -46 -1 -52 17
-52 18 0 20 5 17 67 l-4 66 231 230 c226 225 231 231 231 271 l0 41 76 0 76 0
-4 -47 -5 -47 46 -20 c26 -11 92 -32 146 -46 266 -71 363 -101 524 -162 212
-80 301 -119 301 -133 0 -13 0 -13 -46 9 -80 39 -612 210 -876 283 -104 28
-120 30 -143 18 -13 -7 -138 -128 -277 -269 l-253 -256 34 -3 c33 -3 45 7 270
232 232 232 237 236 278 236 35 0 46 -6 74 -37 l32 -37 -31 -8 c-66 -17 -84
-98 -33 -148 27 -27 34 -29 94 -27 83 3 97 15 97 82 0 43 -5 60 -26 85 -34 40
-41 33 -15 -16 22 -41 27 -99 11 -124 -7 -11 -10 -5 -10 23 0 20 -4 37 -9 37
-11 0 -18 19 -26 82 l-7 46 43 -10 c52 -12 240 -65 507 -142 106 -31 201 -56
210 -56 15 -1 15 -2 2 -13 -56 -44 -67 -125 -24 -176 17 -20 35 -31 52 -31
l26 0 -22 16 c-31 22 -30 78 2 99 24 16 68 13 94 -8 17 -14 15 -67 -5 -89 -9
-10 -11 -18 -5 -18 19 0 42 44 42 81 0 25 -8 47 -25 67 -15 19 -21 33 -15 37
18 11 11 54 -12 69 -50 32 -506 214 -733 292 l-240 82 -6 38 c-4 21 -12 40
-18 42 -7 2 -11 50 -11 148 0 139 -1 144 -21 144 -31 0 -22 42 11 50 23 6 25
11 24 58 l-2 52 42 0 c84 0 495 20 626 30 110 9 145 15 186 35 100 49 177 162
194 283 5 37 36 146 70 242 70 199 289 837 388 1131 90 267 95 256 -169 319
-232 55 -293 51 -364 -24 -36 -37 -49 -66 -123 -283 -46 -133 -81 -247 -77
-253 3 -5 19 -17 36 -25 16 -9 29 -24 29 -34 0 -10 -27 -96 -61 -192 -33 -96
-76 -223 -94 -284 l-34 -110 -1 151 c0 166 10 284 42 499 28 194 28 278 -2
339 -38 79 -108 119 -231 132 l-56 7 -12 80 c-36 232 -133 395 -303 506 -56
36 -298 141 -327 141 -6 0 -34 32 -62 70 -50 69 -51 70 -96 70 l-45 0 7 37 c3
20 24 89 45 154 50 150 57 200 35 259 -9 25 -24 75 -34 111 -10 37 -25 77 -34
89 -18 26 -66 60 -85 60 -7 0 -30 13 -50 29 -44 35 -146 71 -199 70 -21 0 -74
-10 -118 -21z m245 -33 c52 -27 82 -55 58 -55 -8 0 -18 3 -21 6 -9 9 -117 15
-298 17 l-146 2 -37 -29 c-21 -16 -45 -43 -53 -60 l-14 -31 6 34 c10 61 66
101 142 101 21 0 76 11 123 25 100 29 169 26 240 -10z m-436 -2 c-17 -2 -42
-15 -55 -29 -20 -22 -24 -36 -24 -92 0 -37 3 -80 7 -95 7 -27 6 -29 -20 -22
-15 4 -32 11 -39 17 -18 15 -26 69 -14 98 10 25 10 25 10 2 1 -28 24 -74 47
-93 16 -13 16 -12 1 18 -32 61 -15 166 30 192 10 6 34 10 53 9 35 -1 35 -1 4
-5z m309 -54 c26 -5 65 -9 85 -10 l37 -1 -45 -9 c-33 -7 -62 -5 -110 6 -128
31 -104 41 33 14z m-93 -19 c56 -21 70 -30 57 -35 -19 -8 -54 -3 -134 19 -87
24 -140 -1 -169 -81 l-13 -38 -1 38 c-1 119 102 157 260 97z m382 -11 c39 -28
35 -35 -5 -10 -18 11 -44 25 -58 31 -23 10 -23 10 5 5 17 -4 42 -15 58 -26z
m-422 -35 c23 -13 22 -13 -20 -8 l-45 7 35 -39 35 -38 -43 37 c-23 20 -47 37
-53 37 -23 0 -50 -23 -68 -58 -16 -30 -20 -33 -21 -15 -1 85 92 125 180 77z
m398 -1 c15 -11 36 -35 47 -54 l19 -34 -32 27 c-46 38 -99 52 -159 42 l-48 -8
40 -7 c27 -5 17 -6 -30 -3 -45 3 -66 2 -60 -5 6 -5 19 -11 30 -14 16 -3 12 -7
-20 -22 -48 -23 -125 -25 -149 -6 -15 13 -10 18 56 48 141 66 249 79 306 36z
m-741 -15 c-3 -8 -6 -5 -6 6 -1 11 2 17 5 13 3 -3 4 -12 1 -19z m-10 -40 c-3
-8 -6 -5 -6 6 -1 11 2 17 5 13 3 -3 4 -12 1 -19z m706 15 c-7 -2 -19 -2 -25 0
-7 3 -2 5 12 5 14 0 19 -2 13 -5z m94 -82 c22 -51 11 -44 -25 17 -25 43 -27
51 -11 36 12 -10 28 -34 36 -53z m-777 19 c12 -23 12 -24 -3 -11 -10 7 -17 20
-17 29 0 18 3 16 20 -18z m340 -7 c39 -26 42 -30 37 -63 -3 -19 -9 -45 -13
-57 -5 -18 2 -30 28 -55 20 -18 45 -40 57 -48 14 -9 27 -36 36 -70 17 -68 26
-212 15 -230 -5 -9 -4 -20 3 -29 10 -12 9 -14 -7 -7 -19 7 -19 6 -1 -14 14
-16 15 -20 4 -20 -8 0 -20 5 -26 11 -7 7 -13 7 -17 1 -3 -5 1 -15 9 -22 25
-21 17 -33 -10 -16 -27 18 -35 7 -10 -14 8 -7 12 -17 9 -22 -3 -5 -18 1 -31
14 l-26 23 18 -27 c18 -29 7 -39 -15 -13 -21 25 -34 17 -16 -10 14 -21 14 -25
2 -25 -8 0 -18 5 -21 10 -11 17 -25 11 -25 -11 0 -19 -2 -20 -16 -8 -15 12
-16 11 -9 -11 7 -23 7 -24 -10 -10 -15 12 -17 12 -10 1 6 -11 4 -13 -10 -7
-15 5 -16 4 -6 -8 10 -12 8 -16 -9 -21 -11 -3 -18 -11 -15 -16 4 -5 2 -9 -4
-9 -5 0 -15 8 -21 18 -9 14 -10 13 -6 -8 3 -14 3 -19 0 -12 -3 6 -11 9 -17 5
-6 -4 -8 0 -5 9 4 8 2 21 -3 29 -6 10 -9 3 -9 -21 -1 -33 -1 -34 -15 -16 -8
11 -15 35 -15 53 0 26 4 33 20 33 28 0 25 19 -5 30 -14 5 -25 13 -25 18 0 14
112 23 127 10 24 -19 15 21 -10 46 -19 19 -112 44 -123 33 -11 -10 20 -29 55
-34 66 -9 58 -23 -13 -23 -60 0 -66 2 -66 21 0 11 15 34 33 50 27 25 29 31 17
39 -20 13 -47 13 -55 0 -4 -6 6 -11 22 -11 17 -1 9 -5 -22 -10 -63 -10 -74 0
-52 45 9 19 22 62 29 96 l12 62 -27 22 c-24 20 -27 28 -26 81 0 33 6 82 12
108 12 48 13 49 97 92 47 24 97 44 112 44 14 1 45 -11 68 -26z m335 -13 c18
-11 36 -28 39 -37 6 -15 5 -15 -12 0 -11 10 -37 20 -58 23 -31 3 -35 2 -19 -6
16 -8 13 -9 -17 -5 -48 7 -58 -11 -10 -19 20 -3 46 -14 57 -22 l20 -17 -20 8
c-35 13 -170 24 -179 14 -6 -6 -3 -9 10 -9 29 0 88 -18 109 -34 17 -12 13 -12
-35 0 -30 8 -68 14 -85 13 -22 0 -14 -5 33 -19 35 -9 69 -23 75 -30 10 -10 8
-11 -8 -5 -11 4 -40 9 -65 11 l-45 3 50 -14 c48 -14 49 -14 12 -12 -21 1 -41
-3 -45 -10 -12 -19 -78 19 -74 42 2 11 3 32 3 46 -1 23 2 26 26 22 26 -3 27
-3 6 6 -13 6 -23 15 -23 21 0 5 10 10 23 11 12 0 47 8 77 19 73 24 116 24 155
0z m15 -222 c26 -43 25 -72 -5 -136 -16 -35 -33 -56 -52 -64 -38 -16 -37 -16
-23 -33 16 -19 39 -19 61 1 15 14 18 12 38 -19 11 -19 34 -51 51 -72 36 -45
44 -27 -99 -212 -54 -71 -105 -143 -113 -162 l-14 -34 -52 62 c-29 35 -52 66
-52 70 0 4 11 17 25 29 43 37 122 167 129 212 4 29 0 61 -14 107 -22 72 -27
182 -9 216 38 74 96 89 129 35z m209 -376 l44 -67 -21 -35 c-12 -19 -55 -94
-94 -167 -83 -151 -77 -148 -170 -77 -31 24 -61 44 -68 44 -6 0 11 26 38 58
91 106 215 277 214 295 -2 30 11 18 57 -51z m176 -116 c233 -86 360 -189 443
-357 40 -83 78 -232 70 -282 -2 -12 -11 20 -21 72 -15 81 -48 171 -62 171 -2
0 2 -19 11 -41 27 -78 28 -165 4 -264 -16 -63 -22 -117 -21 -180 1 -103 -16
-538 -25 -636 l-6 -66 33 -12 c34 -12 35 -11 92 48 54 56 57 61 58 113 l1 53
13 -55 c19 -76 18 -109 -5 -155 -25 -49 -25 -62 0 -103 11 -18 20 -35 20 -39
0 -7 -63 2 -178 28 -82 18 -93 23 -89 40 3 10 2 17 -3 14 -14 -9 -282 -66
-287 -61 -3 2 60 19 138 38 179 41 191 50 197 142 3 43 1 66 -7 66 -6 0 -33
33 -60 73 -58 86 -83 111 -135 132 l-38 16 70 -80 c74 -83 105 -148 86 -179
-6 -8 -37 -23 -70 -32 -32 -9 -77 -25 -99 -34 -142 -63 -257 -83 -373 -66 -42
7 -93 18 -112 26 l-34 15 24 -27 c30 -31 79 -58 139 -74 23 -6 41 -14 38 -17
-12 -11 -108 20 -147 48 -27 19 -40 25 -40 15 0 -15 -81 -40 -91 -28 -10 11
-62 173 -57 178 3 2 54 13 114 24 113 21 212 61 336 137 74 44 91 41 171 -37
68 -66 86 -72 38 -11 -41 51 -98 101 -116 101 -8 0 -15 5 -15 10 0 6 13 10 29
10 39 0 119 -61 187 -145 31 -36 58 -64 61 -61 10 9 -64 113 -102 143 -19 15
-62 44 -95 65 l-61 36 36 12 c46 15 116 -7 187 -61 61 -46 75 -43 28 6 -72 74
-183 105 -250 70 -27 -14 -30 -14 -30 1 0 21 33 67 100 138 55 59 55 59 15 34
-73 -45 -72 -44 -55 -22 8 10 36 44 63 74 41 47 167 270 153 270 -3 0 -38 -46
-77 -102 -40 -57 -93 -129 -117 -162 -25 -32 -57 -81 -72 -108 l-27 -50 -5
158 -5 158 32 31 c58 55 160 243 141 262 -3 3 -6 1 -6 -5 0 -14 -161 -254
-167 -248 -12 12 -43 149 -43 191 1 98 66 240 153 332 55 58 141 99 186 88 20
-4 22 -3 11 5 -20 13 -73 13 -103 -1 -20 -9 -31 -7 -64 14 -22 14 -85 48 -141
76 -99 50 -101 52 -90 76 6 14 16 25 22 25 6 0 52 -15 101 -34z m57 -133 c35
-20 64 -37 66 -38 2 -2 -23 -29 -55 -61 -66 -67 -120 -163 -154 -273 -19 -63
-21 -83 -12 -123 5 -27 6 -45 2 -41 -17 17 -39 131 -39 202 0 41 -2 72 -5 70
-2 -3 -9 -38 -16 -78 -13 -87 -1 -166 37 -246 l25 -50 -36 39 c-19 22 -35 45
-35 53 0 10 -22 13 -90 13 l-90 0 0 -32 c0 -18 9 -93 20 -167 15 -101 24 -139
39 -155 34 -36 130 -89 184 -101 l52 -12 -37 -8 c-41 -8 -123 7 -170 31 -16 9
-51 34 -76 57 -32 30 -41 35 -33 19 42 -79 144 -145 273 -177 l67 -17 -6 -32
c-3 -17 -6 -32 -7 -32 -1 -1 -66 -34 -146 -74 -115 -57 -164 -76 -239 -91 -53
-11 -101 -17 -108 -15 -21 8 -25 68 -8 109 21 50 8 95 -47 167 -146 192 -234
383 -277 601 -11 57 -22 113 -24 124 -3 11 -5 -16 -6 -60 -1 -85 17 -181 48
-255 10 -25 22 -61 26 -80 l6 -35 -18 25 c-10 14 -51 57 -91 96 -42 41 -72 79
-71 90 0 18 1 17 9 -2 4 -11 27 -37 51 -58 57 -48 72 -33 31 31 -74 115 -90
208 -57 321 19 63 47 96 134 161 76 56 85 60 76 31 -4 -11 3 -40 16 -67 l22
-48 6 30 c7 35 18 24 37 -35 11 -33 12 -34 13 -7 1 15 3 27 6 27 3 0 31 -16
62 -36 l55 -35 -6 -49 c-15 -113 30 -492 68 -577 14 -29 23 -53 20 -53 -21 0
-117 62 -161 103 -47 44 -53 47 -43 23 34 -90 128 -169 292 -245 124 -58 142
-61 83 -14 -28 22 -63 55 -78 73 -62 74 -107 199 -112 314 -1 34 -10 116 -19
183 -19 136 -15 165 32 261 28 57 37 63 45 31 5 -18 11 -20 34 -14 44 10 68
39 150 181 l76 131 73 -34 c41 -18 102 -50 136 -70z m-747 -14 c-5 -29 -3 -45
7 -57 8 -9 18 -25 21 -35 6 -17 4 -16 -19 2 -32 26 -41 26 -47 4 -2 -10 -2 -3
0 16 5 36 32 111 40 111 3 0 2 -18 -2 -41z m133 -171 c20 -28 3 -21 -44 18
-32 25 -44 43 -44 61 0 26 2 25 38 -17 20 -24 43 -52 50 -62z m105 13 c-9 -14
-26 -50 -39 -80 l-23 -56 -1 37 c0 21 7 58 16 84 9 26 14 61 11 78 l-4 30 28
-34 c28 -33 28 -35 12 -59z m-507 -355 c14 -28 37 -67 51 -86 l26 -35 -33 30
c-38 35 -78 117 -85 178 l-5 42 10 -39 c6 -21 22 -62 36 -90z m2314 74 c13 -8
13 -10 -1 -10 -23 0 -76 -62 -83 -97 -3 -15 -17 -108 -31 -206 -30 -208 -48
-265 -221 -695 -63 -155 -118 -301 -123 -324 -7 -28 -5 -68 5 -130 17 -104 12
-129 -28 -163 -23 -19 -41 -25 -78 -25 l-48 0 20 53 c11 28 35 130 54 225 36
186 55 263 140 552 30 101 54 193 54 202 0 10 -18 29 -39 43 l-40 24 19 38 c9
21 46 125 80 231 64 199 84 236 145 273 33 21 148 26 175 9z m-1863 -62 c-3
-7 -5 -2 -5 12 0 14 2 19 5 13 2 -7 2 -19 0 -25z m2055 11 c89 -21 128 -44
128 -74 0 -8 -30 -97 -66 -197 -36 -101 -98 -280 -139 -398 -116 -343 -222
-642 -276 -784 -28 -72 -55 -155 -59 -184 -19 -112 -102 -216 -194 -242 -56
-15 -72 -10 -79 28 -5 24 -18 36 -71 63 -36 19 -66 37 -66 41 0 4 38 32 84 62
92 61 152 121 162 163 4 15 2 65 -5 110 -8 59 -8 95 -1 128 6 26 69 192 141
368 174 429 174 428 204 667 27 210 37 243 78 260 34 14 62 12 159 -11z
m-2045 -71 c-3 -7 -5 -2 -5 12 0 14 2 19 5 13 2 -7 2 -19 0 -25z m317 -5 c3
-16 10 -77 16 -137 5 -61 15 -115 21 -120 9 -8 10 -4 6 14 -3 14 -9 57 -12 95
-3 39 -8 88 -11 110 l-5 39 33 -43 c55 -73 58 -81 58 -179 0 -92 0 -93 -27
-103 -33 -13 -133 2 -168 25 -23 15 -34 65 -51 229 l-7 67 67 0 c40 0 66 4 66
11 0 6 -24 10 -65 8 -36 -1 -68 1 -72 4 -3 4 28 7 70 7 74 0 75 0 81 -27z
m726 -473 c7 -85 15 -161 20 -169 13 -25 -53 -207 -72 -195 -4 3 -15 18 -23
34 -13 26 -12 34 16 110 38 105 35 126 -10 66 -19 -25 -36 -44 -38 -43 -1 2 6
27 17 55 27 71 50 209 50 302 0 87 -9 106 -27 58 -11 -29 -12 -22 -9 67 2 68
9 114 22 145 l19 45 12 -160 c6 -88 17 -230 23 -315z m-1033 428 c-3 -8 -6 -5
-6 6 -1 11 2 17 5 13 3 -3 4 -12 1 -19z m-424 -77 c41 -44 104 -148 95 -157
-3 -2 -21 19 -42 46 -21 28 -40 50 -42 50 -10 0 41 -106 64 -133 14 -16 14
-19 2 -27 -26 -16 -66 -11 -96 12 l-28 23 24 -45 c18 -31 38 -52 68 -67 l44
-22 -37 -7 c-20 -3 -66 -4 -101 -1 -35 2 -64 1 -64 -3 0 -4 24 -15 53 -24 43
-15 62 -16 107 -8 30 6 57 9 58 7 2 -2 -19 -15 -47 -29 -28 -15 -51 -28 -51
-30 0 -2 19 0 43 5 49 9 55 5 57 -36 5 -69 6 -69 -77 -24 -76 40 -80 41 -155
37 -92 -5 -100 6 -43 62 24 24 35 43 35 63 0 17 7 35 15 41 10 7 20 47 30 116
24 180 28 200 35 200 4 0 28 -22 53 -49z m216 -280 c17 -41 30 -76 27 -78 -4
-4 -66 139 -66 153 0 14 8 -1 39 -75z m-1569 -106 c162 -14 312 -30 332 -35
l37 -11 40 -127 c22 -70 56 -181 76 -247 20 -66 72 -228 116 -361 43 -133 79
-244 79 -248 0 -3 -12 -6 -26 -6 -27 0 -634 133 -691 151 -20 6 -37 21 -46 42
-37 78 -297 828 -297 855 0 17 6 19 43 16 23 -3 175 -15 337 -29z m1661 -65
c33 -44 36 -54 32 -94 -3 -24 -1 -58 5 -74 8 -24 7 -32 -9 -46 -10 -8 -19 -26
-19 -39 0 -21 -9 -27 -76 -46 -125 -36 -184 -61 -184 -77 0 -11 -10 -14 -37
-12 -35 3 -38 6 -44 38 -3 19 -11 45 -18 58 -11 20 -8 26 21 53 42 39 113 89
127 89 7 0 6 -13 -4 -36 -8 -20 -15 -41 -15 -47 0 -21 30 29 46 77 9 28 39 83
65 124 27 41 49 84 50 96 0 20 1 20 12 3 7 -10 28 -40 48 -67z m-1215 -81 c19
-57 53 -169 75 -249 23 -80 68 -228 100 -329 33 -102 58 -189 56 -194 -3 -10
-97 284 -202 628 -36 121 -76 236 -87 255 l-21 35 22 -21 c13 -12 37 -65 57
-125z m914 40 c46 -26 47 -38 1 -15 -31 17 -121 20 -156 7 -14 -6 -3 -10 39
-15 64 -7 101 -23 130 -55 18 -20 10 -30 -9 -12 -21 18 -111 41 -164 41 -34 0
-73 -8 -99 -20 -38 -17 -41 -17 -33 -2 18 33 76 81 111 91 51 15 133 6 180
-20z m-58 -100 c47 -23 54 -39 17 -39 -11 0 -17 -5 -14 -10 4 -6 12 -7 18 -3
7 3 4 -3 -7 -15 l-18 -21 -49 20 c-72 28 -85 24 -44 -12 20 -18 43 -46 52 -63
l16 -31 -24 21 c-31 28 -63 44 -86 44 -11 -1 -5 -8 19 -20 46 -25 54 -38 35
-57 -12 -13 -21 -13 -47 -4 -19 6 -39 7 -47 2 -12 -6 -10 -10 11 -15 44 -11
29 -26 -25 -26 -40 0 -61 7 -100 31 l-48 32 19 26 c113 154 141 175 220 168
30 -3 76 -15 102 -28z m444 -160 c11 -35 24 -77 28 -94 7 -30 7 -30 -9 -8 -16
23 -65 146 -65 164 0 6 6 9 12 7 7 -3 22 -33 34 -69z m-896 -50 c-39 -34 -23
-29 28 9 l33 25 55 -24 c58 -25 72 -45 28 -42 -13 1 -22 -2 -19 -7 3 -4 -20
-22 -50 -39 -54 -31 -122 -105 -168 -183 -26 -45 -43 -44 -39 2 2 23 21 55 68
111 36 44 62 79 58 79 -4 0 -24 -10 -43 -23 -20 -12 -45 -27 -56 -33 -11 -6
-37 -44 -57 -85 -66 -130 -81 -89 -17 45 28 59 39 72 86 98 30 17 51 33 48 36
-8 9 47 62 64 62 10 0 4 -11 -19 -31z m2062 -58 c23 -49 25 -81 12 -199 l-9
-82 -50 33 c-27 18 -80 50 -117 70 -91 51 -102 68 -29 47 19 -5 37 -8 39 -6
10 11 -86 48 -170 67 -51 12 -97 25 -103 30 -5 5 34 9 95 9 92 0 116 -4 190
-31 152 -55 164 -52 127 38 -14 32 -28 69 -31 83 -7 25 -7 25 10 5 9 -11 25
-40 36 -64z m-2182 0 c-19 -16 -45 -42 -57 -57 l-24 -29 11 30 c15 41 59 85
84 85 18 0 16 -5 -14 -29z m550 7 c47 -6 104 -11 128 -11 42 0 43 -1 69 -53
31 -64 29 -68 -59 -113 -82 -41 -147 -48 -237 -26 -69 17 -71 16 -127 -5 -39
-14 -75 -38 -107 -71 -70 -69 -90 -64 -43 10 32 50 132 125 196 146 56 19 69
40 18 30 -65 -13 -163 -68 -216 -123 l-53 -54 15 37 c29 68 76 114 169 161 27
14 47 28 44 30 -10 10 -143 -65 -174 -98 -18 -18 -42 -55 -53 -81 -27 -61 -35
-56 -13 9 31 94 81 147 188 203 47 24 127 27 255 9z m500 -43 c7 -9 11 -17 9
-18 -2 -2 -51 -9 -109 -16 -58 -7 -117 -18 -132 -26 -25 -12 -27 -11 -36 15
-10 27 -9 27 46 40 32 7 62 14 67 15 6 2 40 4 76 4 48 1 70 -3 79 -14z m-290
-146 c-56 -48 -133 -73 -227 -73 -57 -1 -86 3 -95 13 -11 11 -7 12 22 6 76
-17 128 -8 228 39 53 25 99 46 102 46 3 -1 -11 -14 -30 -31z m-811 -95 c-8
-10 -15 -12 -22 -5 -7 7 -4 17 9 32 16 18 19 19 22 5 2 -9 -2 -24 -9 -32z
m124 39 c2 -5 7 -20 11 -35 6 -25 4 -28 -18 -28 -32 0 -39 12 -25 44 12 26 24
33 32 19z m2086 -116 l-1 -42 -10 35 c-5 19 -19 48 -31 64 l-22 31 33 -23 c28
-20 32 -29 31 -65z m-2053 14 c98 -19 212 -39 389 -67 50 -7 110 -14 134 -14
25 0 41 -4 35 -8 -5 -5 -108 -16 -229 -25 -191 -14 -229 -15 -285 -3 -36 8
-91 19 -122 26 -69 14 -86 30 -26 24 32 -3 38 -2 23 5 -11 5 -31 10 -44 10
-13 1 -22 4 -18 7 10 10 87 -7 87 -19 0 -13 154 -47 213 -47 43 0 49 17 10 26
-16 3 -44 10 -63 15 -54 14 -81 10 -40 -6 46 -18 16 -19 -34 -1 -30 10 -35 15
-20 18 10 2 -15 10 -56 17 -94 17 -120 27 -120 46 0 21 44 20 166 -4z m141
-97 c-3 -3 -12 -4 -19 -1 -8 3 -5 6 6 6 11 1 17 -2 13 -5z m476 -1 c-7 -2 -19
-2 -25 0 -7 3 -2 5 12 5 14 0 19 -2 13 -5z m-1480 -17 c12 -8 130 -39 262 -69
404 -93 443 -100 473 -89 27 11 69 14 418 32 184 10 197 9 334 -15 132 -23
179 -35 136 -35 -9 0 -79 -7 -154 -15 -163 -18 -464 -43 -617 -51 -60 -4 -256
-1 -434 5 l-325 12 -165 71 c-91 38 -220 90 -286 115 -66 24 -122 46 -124 49
-2 2 100 4 228 4 183 0 236 -3 254 -14z m754 8 c-3 -3 -12 -4 -19 -1 -8 3 -5
6 6 6 11 1 17 -2 13 -5z m110 -20 c-3 -3 -12 -4 -19 -1 -8 3 -5 6 6 6 11 1 17
-2 13 -5z m550 -8 c-4 -13 -410 -55 -415 -44 -2 4 -12 3 -23 -3 -11 -6 -30 -9
-42 -8 -12 1 -30 -1 -39 -6 -10 -4 -25 -4 -34 -1 -9 4 -22 1 -30 -4 -17 -15
-86 -9 -92 8 -3 9 14 12 60 13 74 2 95 4 251 24 94 12 266 27 355 31 7 0 11
-4 9 -10z m-592 -6 l30 -8 -30 0 c-16 0 -41 4 -55 8 l-25 8 25 0 c14 0 39 -4
55 -8z m103 3 c-10 -2 -26 -2 -35 0 -10 3 -2 5 17 5 19 0 27 -2 18 -5z m-88
-344 c31 -1 30 -2 -14 -10 -26 -4 -59 -17 -71 -29 -68 -64 -92 -227 -47 -324
21 -47 21 -48 2 -31 -11 10 -31 40 -45 68 -42 86 -32 167 37 283 32 54 34 55
68 50 19 -3 51 -6 70 -7z m514 -134 c7 -29 7 -29 -9 4 -8 18 -14 50 -14 70 l2
36 7 -40 c4 -22 10 -53 14 -70z m-50 -27 c-3 -18 -10 -49 -15 -68 -5 -19 -9
-57 -10 -85 0 -27 -4 -59 -8 -70 -7 -18 -10 -17 -25 14 -44 84 -86 195 -78
203 10 10 96 36 124 37 14 1 16 -5 12 -31z m1126 -17 c0 -17 -11 -20 -106 -26
-65 -5 -114 -4 -127 3 -19 8 -13 11 38 17 33 4 83 10 110 15 79 12 85 12 85
-9z m-1445 -70 c39 -6 86 -13 105 -15 19 -2 -10 -3 -65 -2 -73 2 -108 7 -130
20 -28 16 -28 17 -5 12 14 -3 57 -10 95 -15z m1375 -1 c0 -14 -7 -20 -23 -20
-13 0 -26 3 -30 6 -12 12 6 34 29 34 17 0 24 -6 24 -20z m-5 -112 c3 -35 5
-94 3 -133 l-3 -70 -30 0 -30 0 -3 133 -3 132 30 0 c29 0 30 -1 36 -62z
m-1255 5 c25 -9 49 -19 54 -24 14 -12 -79 18 -111 36 -15 9 -19 13 -8 10 11
-4 40 -14 65 -22z m-254 -129 c13 -23 36 -70 50 -105 14 -35 55 -128 90 -206
78 -173 87 -196 75 -191 -11 3 -275 528 -286 568 l-7 25 27 -25 c15 -14 38
-43 51 -66z m192 -281 c32 -57 62 -100 65 -96 10 9 7 -7 -8 -47 l-13 -35 -10
25 c-5 14 -31 75 -56 137 -67 162 -64 163 22 16z m123 60 c-12 -20 -14 -14 -5
12 4 9 9 14 11 11 3 -2 0 -13 -6 -23z m-32 -102 c-7 -23 -14 -39 -16 -37 -3 2
1 23 8 45 7 23 14 39 16 37 3 -2 -1 -23 -8 -45z m1351 -130 c-5 -11 -10 -32
-11 -48 0 -24 -2 -25 -8 -8 -9 21 -5 41 12 63 14 19 19 14 7 -7z m900 -157 c0
-9 -12 -25 -26 -36 -14 -12 -30 -30 -34 -42 -8 -19 -9 -18 -9 7 -1 30 15 67
33 79 19 13 36 9 36 -8z"/>
<path d="M2570 4720 c-11 -7 -6 -10 20 -10 26 0 31 3 20 10 -8 5 -17 10 -20
10 -3 0 -12 -5 -20 -10z"/>
<path d="M2178 4246 c-31 -9 -35 -14 -27 -29 6 -9 19 -17 29 -17 13 0 20 -7
20 -19 0 -12 9 -21 25 -25 29 -7 48 0 40 15 -4 5 1 9 9 9 9 0 16 5 16 10 0 6
-11 10 -24 10 -38 0 -42 20 -4 21 18 1 44 4 58 8 25 7 25 7 -9 19 -41 14 -83
14 -133 -2z"/>
<path d="M2211 4045 c0 -18 28 -61 29 -44 0 8 -7 24 -15 35 -8 10 -14 15 -14
9z"/>
<path d="M2646 4279 c-26 -20 -38 -79 -16 -79 6 0 10 -9 10 -19 0 -11 -4 -23
-10 -26 -13 -8 -13 -35 0 -35 13 0 36 38 44 73 6 25 5 27 -19 21 -15 -4 -25
-2 -25 5 0 6 7 8 17 4 10 -4 14 -2 10 4 -10 15 2 43 18 43 7 0 20 -17 28 -37
12 -28 16 -32 16 -16 1 32 -15 69 -33 76 -8 3 -26 -3 -40 -14z"/>
<path d="M3160 2933 c-31 -35 -65 -101 -57 -109 2 -2 17 17 34 43 16 27 37 60
47 76 26 38 14 34 -24 -10z"/>
<path d="M2781 2233 c40 -48 163 -67 267 -42 47 12 79 29 53 29 -7 0 -11 6 -8
14 4 11 -2 11 -36 -1 -56 -20 -183 -19 -231 1 -49 20 -62 20 -45 -1z"/>
<path d="M912 2148 c-18 -18 -14 -79 8 -116 24 -38 65 -61 81 -45 16 16 1 35
-22 28 -35 -11 -73 77 -50 114 8 12 12 12 25 2 9 -8 16 -9 16 -4 0 12 -22 33
-35 33 -6 0 -16 -5 -23 -12z"/>
<path d="M1750 2110 c-12 -8 -9 -10 12 -10 15 0 30 5 33 10 8 13 -25 13 -45 0z"/>
<path d="M3462 1802 c38 -54 106 -120 83 -81 -19 31 -78 99 -87 99 -5 0 -3 -8
4 -18z"/>
<path d="M1220 656 c0 -576 2 -656 15 -656 13 0 15 54 15 423 0 390 7 502 24
417 3 -18 6 -214 6 -436 0 -397 0 -404 20 -404 20 0 20 7 20 650 l0 650 -27 0
c-16 0 -38 3 -50 6 l-23 6 0 -656z"/>
<path d="M2391 774 c0 -11 3 -14 6 -6 3 7 2 16 -1 19 -3 4 -6 -2 -5 -13z"/>
<path d="M2382 730 c-4 -55 -44 -197 -91 -317 -52 -136 -69 -189 -52 -163 20
32 114 289 133 362 11 43 17 92 15 110 -3 25 -4 27 -5 8z"/>
<path d="M2042 508 c-61 -157 -83 -236 -89 -319 l-6 -76 61 -42 c34 -23 65
-48 70 -57 6 -10 19 -14 38 -12 l29 3 -62 61 c-54 54 -62 68 -73 119 -16 76
-7 141 41 294 21 69 37 126 35 128 -2 3 -22 -42 -44 -99z"/>
<path d="M2336 160 c-36 -82 -66 -152 -66 -155 0 -3 68 -5 150 -5 l150 0 -15
37 c-9 21 -29 52 -44 68 -16 17 -32 41 -36 53 -8 28 -65 152 -70 152 -2 0 -33
-67 -69 -150z"/>
</g>
</svg>